<?xml version="1.0" encoding="UTF-8" standalone="no"?>
<!DOCTYPE svg PUBLIC "-//W3C//DTD SVG 1.1//EN"
 "http://www.w3.org/Graphics/SVG/1.1/DTD/svg11.dtd">
<!-- Generated by graphviz version 2.43.0 (0)
 -->
<!-- Title: sourcetree Pages: 1 -->
<svg width="708pt" height="116pt"
 viewBox="0.00 0.00 707.50 116.00" xmlns="http://www.w3.org/2000/svg" xmlns:xlink="http://www.w3.org/1999/xlink">
<g id="graph0" class="graph" transform="scale(1 1) rotate(0) translate(4 112)">
<title>sourcetree</title>
<polygon fill="white" stroke="transparent" points="-4,4 -4,-112 703.5,-112 703.5,4 -4,4"/>
<!-- MulleObjCStandardFoundation -->
<g id="node1" class="node">
<title>MulleObjCStandardFoundation</title>
<polygon fill="yellow" stroke="black" points="485,-108 246,-108 246,-72 485,-72 485,-108"/>
<text text-anchor="middle" x="365.5" y="-86.3" font-family="Times,serif" font-size="14.00">MulleObjCStandardFoundation</text>
</g>
<!-- MulleObjCContainerFoundation -->
<g id="node2" class="node">
<title>MulleObjCContainerFoundation</title>
<g id="a_node2"><a xlink:href="https://github.com/MulleFoundation/MulleObjCContainerFoundation" xlink:title="MulleObjCContainerFoundation">
<polygon fill="lightgrey" stroke="black" points="243,-36 0,-36 0,0 243,0 243,-36"/>
<text text-anchor="middle" x="121.5" y="-14.3" font-family="Times,serif" font-size="14.00">MulleObjCContainerFoundation</text>
</a>
</g>
</g>
<!-- MulleObjCStandardFoundation&#45;&gt;MulleObjCContainerFoundation -->
<g id="edge1" class="edge">
<title>MulleObjCStandardFoundation&#45;&gt;MulleObjCContainerFoundation</title>
<path fill="none" stroke="black" d="M306.12,-71.97C271.44,-62.01 227.49,-49.41 191.17,-38.99"/>
<polygon fill="black" stroke="black" points="191.72,-35.5 181.14,-36.11 189.79,-42.23 191.72,-35.5"/>
</g>
<!-- MulleObjCTimeFoundation -->
<g id="node3" class="node">
<title>MulleObjCTimeFoundation</title>
<g id="a_node3"><a xlink:href="https://github.com/MulleFoundation/MulleObjCTimeFoundation" xlink:title="MulleObjCTimeFoundation">
<polygon fill="lightgrey" stroke="black" points="469.5,-36 261.5,-36 261.5,0 469.5,0 469.5,-36"/>
<text text-anchor="middle" x="365.5" y="-14.3" font-family="Times,serif" font-size="14.00">MulleObjCTimeFoundation</text>
</a>
</g>
</g>
<!-- MulleObjCStandardFoundation&#45;&gt;MulleObjCTimeFoundation -->
<g id="edge2" class="edge">
<title>MulleObjCStandardFoundation&#45;&gt;MulleObjCTimeFoundation</title>
<path fill="none" stroke="black" d="M365.5,-71.7C365.5,-63.98 365.5,-54.71 365.5,-46.11"/>
<polygon fill="black" stroke="black" points="369,-46.1 365.5,-36.1 362,-46.1 369,-46.1"/>
</g>
<!-- MulleObjCValueFoundation -->
<g id="node4" class="node">
<title>MulleObjCValueFoundation</title>
<g id="a_node4"><a xlink:href="https://github.com/MulleFoundation/MulleObjCValueFoundation" xlink:title="MulleObjCValueFoundation">
<polygon fill="lightgrey" stroke="black" points="699.5,-36 487.5,-36 487.5,0 699.5,0 699.5,-36"/>
<text text-anchor="middle" x="593.5" y="-14.3" font-family="Times,serif" font-size="14.00">MulleObjCValueFoundation</text>
</a>
</g>
</g>
<!-- MulleObjCStandardFoundation&#45;&gt;MulleObjCValueFoundation -->
<g id="edge3" class="edge">
<title>MulleObjCStandardFoundation&#45;&gt;MulleObjCValueFoundation</title>
<path fill="none" stroke="black" d="M420.98,-71.97C453.26,-62.06 494.11,-49.51 527.96,-39.12"/>
<polygon fill="black" stroke="black" points="529.24,-42.39 537.77,-36.11 527.18,-35.7 529.24,-42.39"/>
</g>
</g>
</svg>
