<?xml version="1.0" encoding="UTF-8" standalone="no"?>
<!DOCTYPE svg PUBLIC "-//W3C//DTD SVG 1.1//EN"
 "http://www.w3.org/Graphics/SVG/1.1/DTD/svg11.dtd">
<!-- Generated by graphviz version 2.43.0 (0)
 -->
<!-- Title: sourcetree Pages: 1 -->
<svg width="931pt" height="260pt"
 viewBox="0.00 0.00 931.00 260.00" xmlns="http://www.w3.org/2000/svg" xmlns:xlink="http://www.w3.org/1999/xlink">
<g id="graph0" class="graph" transform="scale(1 1) rotate(0) translate(4 256)">
<title>sourcetree</title>
<polygon fill="white" stroke="transparent" points="-4,4 -4,-256 927,-256 927,4 -4,4"/>
<!-- MulleObjCStandardFoundation -->
<g id="node1" class="node">
<title>MulleObjCStandardFoundation</title>
<polygon fill="yellow" stroke="black" points="688.5,-252 449.5,-252 449.5,-216 688.5,-216 688.5,-252"/>
<text text-anchor="middle" x="569" y="-230.3" font-family="Times,serif" font-size="14.00">MulleObjCStandardFoundation</text>
</g>
<!-- MulleObjCContainerFoundation -->
<g id="node9" class="node">
<title>MulleObjCContainerFoundation</title>
<polygon fill="lightgrey" stroke="black" points="332.5,-180 89.5,-180 89.5,-144 332.5,-144 332.5,-180"/>
<text text-anchor="middle" x="211" y="-158.3" font-family="Times,serif" font-size="14.00">MulleObjCContainerFoundation</text>
</g>
<!-- MulleObjCStandardFoundation&#45;&gt;MulleObjCContainerFoundation -->
<g id="edge7" class="edge">
<title>MulleObjCStandardFoundation&#45;&gt;MulleObjCContainerFoundation</title>
<path fill="none" stroke="black" d="M481.88,-215.97C429.37,-205.7 362.39,-192.6 308.17,-182"/>
<polygon fill="black" stroke="black" points="308.68,-178.53 298.2,-180.05 307.34,-185.4 308.68,-178.53"/>
</g>
<!-- MulleObjCTimeFoundation -->
<g id="node10" class="node">
<title>MulleObjCTimeFoundation</title>
<polygon fill="lightgrey" stroke="black" points="559,-180 351,-180 351,-144 559,-144 559,-180"/>
<text text-anchor="middle" x="455" y="-158.3" font-family="Times,serif" font-size="14.00">MulleObjCTimeFoundation</text>
</g>
<!-- MulleObjCStandardFoundation&#45;&gt;MulleObjCTimeFoundation -->
<g id="edge8" class="edge">
<title>MulleObjCStandardFoundation&#45;&gt;MulleObjCTimeFoundation</title>
<path fill="none" stroke="black" d="M541.11,-215.88C526.21,-206.72 507.67,-195.34 491.62,-185.48"/>
<polygon fill="black" stroke="black" points="493.35,-182.44 482.99,-180.19 489.69,-188.41 493.35,-182.44"/>
</g>
<!-- MulleObjCValueFoundation -->
<g id="node11" class="node">
<title>MulleObjCValueFoundation</title>
<polygon fill="lightgrey" stroke="black" points="789,-180 577,-180 577,-144 789,-144 789,-180"/>
<text text-anchor="middle" x="683" y="-158.3" font-family="Times,serif" font-size="14.00">MulleObjCValueFoundation</text>
</g>
<!-- MulleObjCStandardFoundation&#45;&gt;MulleObjCValueFoundation -->
<g id="edge9" class="edge">
<title>MulleObjCStandardFoundation&#45;&gt;MulleObjCValueFoundation</title>
<path fill="none" stroke="black" d="M596.89,-215.88C611.79,-206.72 630.33,-195.34 646.38,-185.48"/>
<polygon fill="black" stroke="black" points="648.31,-188.41 655.01,-180.19 644.65,-182.44 648.31,-188.41"/>
</g>
<!-- mulle&#45;unicode -->
<g id="node12" class="node">
<title>mulle&#45;unicode</title>
<polygon fill="lightgrey" stroke="black" points="923,-180 807,-180 807,-144 923,-144 923,-180"/>
<text text-anchor="middle" x="865" y="-158.3" font-family="Times,serif" font-size="14.00">mulle&#45;unicode</text>
</g>
<!-- MulleObjCStandardFoundation&#45;&gt;mulle&#45;unicode -->
<g id="edge10" class="edge">
<title>MulleObjCStandardFoundation&#45;&gt;mulle&#45;unicode</title>
<path fill="none" stroke="black" d="M644.39,-215.97C686.65,-206.33 740.56,-193.86 797.08,-180.2"/>
<polygon fill="black" stroke="black" points="798.02,-183.57 806.91,-177.82 796.37,-176.77 798.02,-183.57"/>
</g>
<!-- MulleObjC -->
<g id="node2" class="node">
<title>MulleObjC</title>
<polygon fill="lightgrey" stroke="black" points="445,-108 353,-108 353,-72 445,-72 445,-108"/>
<text text-anchor="middle" x="399" y="-86.3" font-family="Times,serif" font-size="14.00">MulleObjC</text>
</g>
<!-- mulle&#45;container -->
<g id="node3" class="node">
<title>mulle&#45;container</title>
<polygon fill="lightgrey" stroke="black" points="128,-36 0,-36 0,0 128,0 128,-36"/>
<text text-anchor="middle" x="64" y="-14.3" font-family="Times,serif" font-size="14.00">mulle&#45;container</text>
</g>
<!-- MulleObjC&#45;&gt;mulle&#45;container -->
<g id="edge1" class="edge">
<title>MulleObjC&#45;&gt;mulle&#45;container</title>
<path fill="none" stroke="black" d="M352.53,-80.03C302.14,-70.2 219.08,-53.73 137.95,-36.18"/>
<polygon fill="black" stroke="black" points="138.59,-32.73 128.07,-34.03 137.1,-39.57 138.59,-32.73"/>
</g>
<!-- mulle&#45;fprintf -->
<g id="node4" class="node">
<title>mulle&#45;fprintf</title>
<polygon fill="lightgrey" stroke="black" points="253.5,-36 146.5,-36 146.5,0 253.5,0 253.5,-36"/>
<text text-anchor="middle" x="200" y="-14.3" font-family="Times,serif" font-size="14.00">mulle&#45;fprintf</text>
</g>
<!-- MulleObjC&#45;&gt;mulle&#45;fprintf -->
<g id="edge2" class="edge">
<title>MulleObjC&#45;&gt;mulle&#45;fprintf</title>
<path fill="none" stroke="black" d="M352.85,-72.76C324.56,-62.82 288.11,-49.99 257.9,-39.37"/>
<polygon fill="black" stroke="black" points="258.93,-36.02 248.33,-36 256.6,-42.62 258.93,-36.02"/>
</g>
<!-- mulle&#45;multififo -->
<g id="node5" class="node">
<title>mulle&#45;multififo</title>
<polygon fill="lightgrey" stroke="black" points="392.5,-36 271.5,-36 271.5,0 392.5,0 392.5,-36"/>
<text text-anchor="middle" x="332" y="-14.3" font-family="Times,serif" font-size="14.00">mulle&#45;multififo</text>
</g>
<!-- MulleObjC&#45;&gt;mulle&#45;multififo -->
<g id="edge3" class="edge">
<title>MulleObjC&#45;&gt;mulle&#45;multififo</title>
<path fill="none" stroke="black" d="M382.44,-71.7C374.32,-63.22 364.41,-52.86 355.53,-43.58"/>
<polygon fill="black" stroke="black" points="357.81,-40.91 348.37,-36.1 352.76,-45.75 357.81,-40.91"/>
</g>
<!-- mulle&#45;objc&#45;cc -->
<g id="node6" class="node">
<title>mulle&#45;objc&#45;cc</title>
<polygon fill="lightgrey" stroke="black" points="521,-36 411,-36 411,0 521,0 521,-36"/>
<text text-anchor="middle" x="466" y="-14.3" font-family="Times,serif" font-size="14.00">mulle&#45;objc&#45;cc</text>
</g>
<!-- MulleObjC&#45;&gt;mulle&#45;objc&#45;cc -->
<g id="edge4" class="edge">
<title>MulleObjC&#45;&gt;mulle&#45;objc&#45;cc</title>
<path fill="none" stroke="black" d="M415.56,-71.7C423.68,-63.22 433.59,-52.86 442.47,-43.58"/>
<polygon fill="black" stroke="black" points="445.24,-45.75 449.63,-36.1 440.19,-40.91 445.24,-45.75"/>
</g>
<!-- mulle&#45;objc&#45;debug -->
<g id="node7" class="node">
<title>mulle&#45;objc&#45;debug</title>
<polygon fill="lightgrey" stroke="black" points="678.5,-36 539.5,-36 539.5,0 678.5,0 678.5,-36"/>
<text text-anchor="middle" x="609" y="-14.3" font-family="Times,serif" font-size="14.00">mulle&#45;objc&#45;debug</text>
</g>
<!-- MulleObjC&#45;&gt;mulle&#45;objc&#45;debug -->
<g id="edge5" class="edge">
<title>MulleObjC&#45;&gt;mulle&#45;objc&#45;debug</title>
<path fill="none" stroke="black" d="M445.09,-73.64C475.41,-63.53 515.44,-50.19 548.35,-39.22"/>
<polygon fill="black" stroke="black" points="549.49,-42.53 557.87,-36.04 547.27,-35.89 549.49,-42.53"/>
</g>
<!-- mulle&#45;objc&#45;runtime -->
<g id="node8" class="node">
<title>mulle&#45;objc&#45;runtime</title>
<polygon fill="lightgrey" stroke="black" points="849,-36 697,-36 697,0 849,0 849,-36"/>
<text text-anchor="middle" x="773" y="-14.3" font-family="Times,serif" font-size="14.00">mulle&#45;objc&#45;runtime</text>
</g>
<!-- MulleObjC&#45;&gt;mulle&#45;objc&#45;runtime -->
<g id="edge6" class="edge">
<title>MulleObjC&#45;&gt;mulle&#45;objc&#45;runtime</title>
<path fill="none" stroke="black" d="M445.01,-74.47C448.37,-73.58 451.73,-72.74 455,-72 554.07,-49.43 583.08,-53.97 686.65,-36.18"/>
<polygon fill="black" stroke="black" points="687.33,-39.62 696.57,-34.45 686.12,-32.72 687.33,-39.62"/>
</g>
<!-- MulleObjCTimeFoundation&#45;&gt;MulleObjC -->
<g id="edge11" class="edge">
<title>MulleObjCTimeFoundation&#45;&gt;MulleObjC</title>
<path fill="none" stroke="black" d="M441.16,-143.7C434.51,-135.39 426.42,-125.28 419.11,-116.14"/>
<polygon fill="black" stroke="black" points="421.66,-113.73 412.68,-108.1 416.2,-118.1 421.66,-113.73"/>
</g>
<!-- mulle&#45;time -->
<g id="node13" class="node">
<title>mulle&#45;time</title>
<polygon fill="lightgrey" stroke="black" points="556.5,-108 463.5,-108 463.5,-72 556.5,-72 556.5,-108"/>
<text text-anchor="middle" x="510" y="-86.3" font-family="Times,serif" font-size="14.00">mulle&#45;time</text>
</g>
<!-- MulleObjCTimeFoundation&#45;&gt;mulle&#45;time -->
<g id="edge12" class="edge">
<title>MulleObjCTimeFoundation&#45;&gt;mulle&#45;time</title>
<path fill="none" stroke="black" d="M468.6,-143.7C475.12,-135.39 483.07,-125.28 490.25,-116.14"/>
<polygon fill="black" stroke="black" points="493.13,-118.13 496.56,-108.1 487.63,-113.81 493.13,-118.13"/>
</g>
</g>
</svg>
