<?xml version="1.0" encoding="UTF-8" standalone="no"?>
<!DOCTYPE svg PUBLIC "-//W3C//DTD SVG 1.1//EN"
 "http://www.w3.org/Graphics/SVG/1.1/DTD/svg11.dtd">
<!-- Generated by graphviz version 2.43.0 (0)
 -->
<!-- Title: sourcetree Pages: 1 -->
<svg width="842pt" height="260pt"
 viewBox="0.00 0.00 841.50 260.00" xmlns="http://www.w3.org/2000/svg" xmlns:xlink="http://www.w3.org/1999/xlink">
<g id="graph0" class="graph" transform="scale(1 1) rotate(0) translate(4 256)">
<title>sourcetree</title>
<polygon fill="white" stroke="transparent" points="-4,4 -4,-256 837.5,-256 837.5,4 -4,4"/>
<!-- MulleObjCStandardFoundation -->
<g id="node1" class="node">
<title>MulleObjCStandardFoundation</title>
<polygon fill="yellow" stroke="black" points="599,-252 360,-252 360,-216 599,-216 599,-252"/>
<text text-anchor="middle" x="479.5" y="-230.3" font-family="Times,serif" font-size="14.00">MulleObjCStandardFoundation</text>
</g>
<!-- MulleObjCContainerFoundation -->
<g id="node7" class="node">
<title>MulleObjCContainerFoundation</title>
<polygon fill="lightgrey" stroke="black" points="243,-180 0,-180 0,-144 243,-144 243,-180"/>
<text text-anchor="middle" x="121.5" y="-158.3" font-family="Times,serif" font-size="14.00">MulleObjCContainerFoundation</text>
</g>
<!-- MulleObjCStandardFoundation&#45;&gt;MulleObjCContainerFoundation -->
<g id="edge5" class="edge">
<title>MulleObjCStandardFoundation&#45;&gt;MulleObjCContainerFoundation</title>
<path fill="none" stroke="black" d="M392.38,-215.97C339.87,-205.7 272.89,-192.6 218.67,-182"/>
<polygon fill="black" stroke="black" points="219.18,-178.53 208.7,-180.05 217.84,-185.4 219.18,-178.53"/>
</g>
<!-- MulleObjCTimeFoundation -->
<g id="node8" class="node">
<title>MulleObjCTimeFoundation</title>
<polygon fill="lightgrey" stroke="black" points="469.5,-180 261.5,-180 261.5,-144 469.5,-144 469.5,-180"/>
<text text-anchor="middle" x="365.5" y="-158.3" font-family="Times,serif" font-size="14.00">MulleObjCTimeFoundation</text>
</g>
<!-- MulleObjCStandardFoundation&#45;&gt;MulleObjCTimeFoundation -->
<g id="edge6" class="edge">
<title>MulleObjCStandardFoundation&#45;&gt;MulleObjCTimeFoundation</title>
<path fill="none" stroke="black" d="M451.61,-215.88C436.71,-206.72 418.17,-195.34 402.12,-185.48"/>
<polygon fill="black" stroke="black" points="403.85,-182.44 393.49,-180.19 400.19,-188.41 403.85,-182.44"/>
</g>
<!-- MulleObjCValueFoundation -->
<g id="node9" class="node">
<title>MulleObjCValueFoundation</title>
<polygon fill="lightgrey" stroke="black" points="699.5,-180 487.5,-180 487.5,-144 699.5,-144 699.5,-180"/>
<text text-anchor="middle" x="593.5" y="-158.3" font-family="Times,serif" font-size="14.00">MulleObjCValueFoundation</text>
</g>
<!-- MulleObjCStandardFoundation&#45;&gt;MulleObjCValueFoundation -->
<g id="edge7" class="edge">
<title>MulleObjCStandardFoundation&#45;&gt;MulleObjCValueFoundation</title>
<path fill="none" stroke="black" d="M507.39,-215.88C522.29,-206.72 540.83,-195.34 556.88,-185.48"/>
<polygon fill="black" stroke="black" points="558.81,-188.41 565.51,-180.19 555.15,-182.44 558.81,-188.41"/>
</g>
<!-- mulle&#45;unicode -->
<g id="node10" class="node">
<title>mulle&#45;unicode</title>
<polygon fill="lightgrey" stroke="black" points="833.5,-180 717.5,-180 717.5,-144 833.5,-144 833.5,-180"/>
<text text-anchor="middle" x="775.5" y="-158.3" font-family="Times,serif" font-size="14.00">mulle&#45;unicode</text>
</g>
<!-- MulleObjCStandardFoundation&#45;&gt;mulle&#45;unicode -->
<g id="edge8" class="edge">
<title>MulleObjCStandardFoundation&#45;&gt;mulle&#45;unicode</title>
<path fill="none" stroke="black" d="M554.89,-215.97C597.15,-206.33 651.06,-193.86 707.58,-180.2"/>
<polygon fill="black" stroke="black" points="708.52,-183.57 717.41,-177.82 706.87,-176.77 708.52,-183.57"/>
</g>
<!-- MulleObjC -->
<g id="node2" class="node">
<title>MulleObjC</title>
<polygon fill="lightgrey" stroke="black" points="355.5,-108 263.5,-108 263.5,-72 355.5,-72 355.5,-108"/>
<text text-anchor="middle" x="309.5" y="-86.3" font-family="Times,serif" font-size="14.00">MulleObjC</text>
</g>
<!-- mulle&#45;container -->
<g id="node3" class="node">
<title>mulle&#45;container</title>
<polygon fill="lightgrey" stroke="black" points="156.5,-36 28.5,-36 28.5,0 156.5,0 156.5,-36"/>
<text text-anchor="middle" x="92.5" y="-14.3" font-family="Times,serif" font-size="14.00">mulle&#45;container</text>
</g>
<!-- MulleObjC&#45;&gt;mulle&#45;container -->
<g id="edge1" class="edge">
<title>MulleObjC&#45;&gt;mulle&#45;container</title>
<path fill="none" stroke="black" d="M263.48,-74.15C231.87,-63.96 189.52,-50.3 154.87,-39.12"/>
<polygon fill="black" stroke="black" points="155.92,-35.78 145.32,-36.04 153.77,-42.44 155.92,-35.78"/>
</g>
<!-- mulle&#45;multififo -->
<g id="node4" class="node">
<title>mulle&#45;multififo</title>
<polygon fill="lightgrey" stroke="black" points="296,-36 175,-36 175,0 296,0 296,-36"/>
<text text-anchor="middle" x="235.5" y="-14.3" font-family="Times,serif" font-size="14.00">mulle&#45;multififo</text>
</g>
<!-- MulleObjC&#45;&gt;mulle&#45;multififo -->
<g id="edge2" class="edge">
<title>MulleObjC&#45;&gt;mulle&#45;multififo</title>
<path fill="none" stroke="black" d="M291.21,-71.7C282.07,-63.05 270.86,-52.45 260.9,-43.03"/>
<polygon fill="black" stroke="black" points="263.25,-40.43 253.58,-36.1 258.44,-45.52 263.25,-40.43"/>
</g>
<!-- mulle&#45;objc&#45;debug -->
<g id="node5" class="node">
<title>mulle&#45;objc&#45;debug</title>
<polygon fill="lightgrey" stroke="black" points="453,-36 314,-36 314,0 453,0 453,-36"/>
<text text-anchor="middle" x="383.5" y="-14.3" font-family="Times,serif" font-size="14.00">mulle&#45;objc&#45;debug</text>
</g>
<!-- MulleObjC&#45;&gt;mulle&#45;objc&#45;debug -->
<g id="edge3" class="edge">
<title>MulleObjC&#45;&gt;mulle&#45;objc&#45;debug</title>
<path fill="none" stroke="black" d="M327.79,-71.7C336.93,-63.05 348.14,-52.45 358.1,-43.03"/>
<polygon fill="black" stroke="black" points="360.56,-45.52 365.42,-36.1 355.75,-40.43 360.56,-45.52"/>
</g>
<!-- mulle&#45;objc&#45;runtime -->
<g id="node6" class="node">
<title>mulle&#45;objc&#45;runtime</title>
<polygon fill="lightgrey" stroke="black" points="623.5,-36 471.5,-36 471.5,0 623.5,0 623.5,-36"/>
<text text-anchor="middle" x="547.5" y="-14.3" font-family="Times,serif" font-size="14.00">mulle&#45;objc&#45;runtime</text>
</g>
<!-- MulleObjC&#45;&gt;mulle&#45;objc&#45;runtime -->
<g id="edge4" class="edge">
<title>MulleObjC&#45;&gt;mulle&#45;objc&#45;runtime</title>
<path fill="none" stroke="black" d="M355.63,-74.95C358.97,-73.95 362.29,-72.96 365.5,-72 402.82,-60.9 444.52,-48.74 478.58,-38.87"/>
<polygon fill="black" stroke="black" points="479.8,-42.16 488.43,-36.02 477.86,-35.44 479.8,-42.16"/>
</g>
<!-- MulleObjCTimeFoundation&#45;&gt;MulleObjC -->
<g id="edge9" class="edge">
<title>MulleObjCTimeFoundation&#45;&gt;MulleObjC</title>
<path fill="none" stroke="black" d="M351.66,-143.7C345.01,-135.39 336.92,-125.28 329.61,-116.14"/>
<polygon fill="black" stroke="black" points="332.16,-113.73 323.18,-108.1 326.7,-118.1 332.16,-113.73"/>
</g>
<!-- mulle&#45;time -->
<g id="node11" class="node">
<title>mulle&#45;time</title>
<polygon fill="lightgrey" stroke="black" points="467,-108 374,-108 374,-72 467,-72 467,-108"/>
<text text-anchor="middle" x="420.5" y="-86.3" font-family="Times,serif" font-size="14.00">mulle&#45;time</text>
</g>
<!-- MulleObjCTimeFoundation&#45;&gt;mulle&#45;time -->
<g id="edge10" class="edge">
<title>MulleObjCTimeFoundation&#45;&gt;mulle&#45;time</title>
<path fill="none" stroke="black" d="M379.1,-143.7C385.62,-135.39 393.57,-125.28 400.75,-116.14"/>
<polygon fill="black" stroke="black" points="403.63,-118.13 407.06,-108.1 398.13,-113.81 403.63,-118.13"/>
</g>
</g>
</svg>
