<?xml version="1.0" encoding="UTF-8" standalone="no"?>
<!DOCTYPE svg PUBLIC "-//W3C//DTD SVG 1.1//EN"
 "http://www.w3.org/Graphics/SVG/1.1/DTD/svg11.dtd">
<!-- Generated by graphviz version 2.43.0 (0)
 -->
<!-- Title: sourcetree Pages: 1 -->
<svg width="708pt" height="260pt"
 viewBox="0.00 0.00 707.50 260.00" xmlns="http://www.w3.org/2000/svg" xmlns:xlink="http://www.w3.org/1999/xlink">
<g id="graph0" class="graph" transform="scale(1 1) rotate(0) translate(4 256)">
<title>sourcetree</title>
<polygon fill="white" stroke="transparent" points="-4,4 -4,-256 703.5,-256 703.5,4 -4,4"/>
<!-- MulleObjCStandardFoundation -->
<g id="node1" class="node">
<title>MulleObjCStandardFoundation</title>
<polygon fill="yellow" stroke="black" points="485,-252 246,-252 246,-216 485,-216 485,-252"/>
<text text-anchor="middle" x="365.5" y="-230.3" font-family="Times,serif" font-size="14.00">MulleObjCStandardFoundation</text>
</g>
<!-- MulleObjCContainerFoundation -->
<g id="node3" class="node">
<title>MulleObjCContainerFoundation</title>
<g id="a_node3"><a xlink:href="https://github.com/MulleFoundation/MulleObjCContainerFoundation" xlink:title="MulleObjCContainerFoundation">
<polygon fill="lightgrey" stroke="black" points="243,-180 0,-180 0,-144 243,-144 243,-180"/>
<text text-anchor="middle" x="121.5" y="-158.3" font-family="Times,serif" font-size="14.00">MulleObjCContainerFoundation</text>
</a>
</g>
</g>
<!-- MulleObjCStandardFoundation&#45;&gt;MulleObjCContainerFoundation -->
<g id="edge4" class="edge">
<title>MulleObjCStandardFoundation&#45;&gt;MulleObjCContainerFoundation</title>
<path fill="none" stroke="black" d="M306.12,-215.97C271.44,-206.01 227.49,-193.41 191.17,-182.99"/>
<polygon fill="black" stroke="black" points="191.72,-179.5 181.14,-180.11 189.79,-186.23 191.72,-179.5"/>
</g>
<!-- MulleObjCTimeFoundation -->
<g id="node7" class="node">
<title>MulleObjCTimeFoundation</title>
<g id="a_node7"><a xlink:href="https://github.com/MulleFoundation/MulleObjCTimeFoundation" xlink:title="MulleObjCTimeFoundation">
<polygon fill="lightgrey" stroke="black" points="469.5,-180 261.5,-180 261.5,-144 469.5,-144 469.5,-180"/>
<text text-anchor="middle" x="365.5" y="-158.3" font-family="Times,serif" font-size="14.00">MulleObjCTimeFoundation</text>
</a>
</g>
</g>
<!-- MulleObjCStandardFoundation&#45;&gt;MulleObjCTimeFoundation -->
<g id="edge5" class="edge">
<title>MulleObjCStandardFoundation&#45;&gt;MulleObjCTimeFoundation</title>
<path fill="none" stroke="black" d="M365.5,-215.7C365.5,-207.98 365.5,-198.71 365.5,-190.11"/>
<polygon fill="black" stroke="black" points="369,-190.1 365.5,-180.1 362,-190.1 369,-190.1"/>
</g>
<!-- MulleObjCValueFoundation -->
<g id="node8" class="node">
<title>MulleObjCValueFoundation</title>
<g id="a_node8"><a xlink:href="https://github.com/MulleFoundation/MulleObjCValueFoundation" xlink:title="MulleObjCValueFoundation">
<polygon fill="lightgrey" stroke="black" points="699.5,-180 487.5,-180 487.5,-144 699.5,-144 699.5,-180"/>
<text text-anchor="middle" x="593.5" y="-158.3" font-family="Times,serif" font-size="14.00">MulleObjCValueFoundation</text>
</a>
</g>
</g>
<!-- MulleObjCStandardFoundation&#45;&gt;MulleObjCValueFoundation -->
<g id="edge6" class="edge">
<title>MulleObjCStandardFoundation&#45;&gt;MulleObjCValueFoundation</title>
<path fill="none" stroke="black" d="M420.98,-215.97C453.26,-206.06 494.11,-193.51 527.96,-183.12"/>
<polygon fill="black" stroke="black" points="529.24,-186.39 537.77,-180.11 527.18,-179.7 529.24,-186.39"/>
</g>
<!-- mulle&#45;objc&#45;cc -->
<g id="node2" class="node">
<title>mulle&#45;objc&#45;cc</title>
<g id="a_node2"><a xlink:href="https://github.com/mulle-cc/mulle-objc-cc" xlink:title="mulle&#45;objc&#45;cc">
<polygon fill="lightgrey" stroke="black" points="277.5,-36 167.5,-36 167.5,0 277.5,0 277.5,-36"/>
<text text-anchor="middle" x="222.5" y="-14.3" font-family="Times,serif" font-size="14.00">mulle&#45;objc&#45;cc</text>
</a>
</g>
</g>
<!-- mulle&#45;objc&#45;debug -->
<g id="node4" class="node">
<title>mulle&#45;objc&#45;debug</title>
<g id="a_node4"><a xlink:href="https://github.com/mulle-objc/mulle-objc-debug" xlink:title="mulle&#45;objc&#45;debug">
<polygon fill="lightgrey" stroke="black" points="435,-36 296,-36 296,0 435,0 435,-36"/>
<text text-anchor="middle" x="365.5" y="-14.3" font-family="Times,serif" font-size="14.00">mulle&#45;objc&#45;debug</text>
</a>
</g>
</g>
<!-- MulleObjC -->
<g id="node5" class="node">
<title>MulleObjC</title>
<g id="a_node5"><a xlink:href="https://github.com/mulle-objc/MulleObjC" xlink:title="MulleObjC">
<polygon fill="lightgrey" stroke="black" points="411.5,-108 319.5,-108 319.5,-72 411.5,-72 411.5,-108"/>
<text text-anchor="middle" x="365.5" y="-86.3" font-family="Times,serif" font-size="14.00">MulleObjC</text>
</a>
</g>
</g>
<!-- MulleObjC&#45;&gt;mulle&#45;objc&#45;cc -->
<g id="edge1" class="edge">
<title>MulleObjC&#45;&gt;mulle&#45;objc&#45;cc</title>
<path fill="none" stroke="black" d="M330.52,-71.88C311.3,-62.47 287.27,-50.71 266.76,-40.67"/>
<polygon fill="black" stroke="black" points="268.14,-37.44 257.62,-36.19 265.06,-43.73 268.14,-37.44"/>
</g>
<!-- MulleObjC&#45;&gt;mulle&#45;objc&#45;debug -->
<g id="edge2" class="edge">
<title>MulleObjC&#45;&gt;mulle&#45;objc&#45;debug</title>
<path fill="none" stroke="black" d="M365.5,-71.7C365.5,-63.98 365.5,-54.71 365.5,-46.11"/>
<polygon fill="black" stroke="black" points="369,-46.1 365.5,-36.1 362,-46.1 369,-46.1"/>
</g>
<!-- mulle&#45;objc&#45;runtime -->
<g id="node6" class="node">
<title>mulle&#45;objc&#45;runtime</title>
<g id="a_node6"><a xlink:href="https://github.com/mulle-objc/mulle-objc-runtime" xlink:title="mulle&#45;objc&#45;runtime">
<polygon fill="lightgrey" stroke="black" points="605.5,-36 453.5,-36 453.5,0 605.5,0 605.5,-36"/>
<text text-anchor="middle" x="529.5" y="-14.3" font-family="Times,serif" font-size="14.00">mulle&#45;objc&#45;runtime</text>
</a>
</g>
</g>
<!-- MulleObjC&#45;&gt;mulle&#45;objc&#45;runtime -->
<g id="edge3" class="edge">
<title>MulleObjC&#45;&gt;mulle&#45;objc&#45;runtime</title>
<path fill="none" stroke="black" d="M405.62,-71.88C428.14,-62.26 456.42,-50.19 480.27,-40.01"/>
<polygon fill="black" stroke="black" points="481.69,-43.21 489.51,-36.07 478.94,-36.77 481.69,-43.21"/>
</g>
<!-- MulleObjCTimeFoundation&#45;&gt;MulleObjC -->
<g id="edge7" class="edge">
<title>MulleObjCTimeFoundation&#45;&gt;MulleObjC</title>
<path fill="none" stroke="black" d="M365.5,-143.7C365.5,-135.98 365.5,-126.71 365.5,-118.11"/>
<polygon fill="black" stroke="black" points="369,-118.1 365.5,-108.1 362,-118.1 369,-118.1"/>
</g>
</g>
</svg>
