<?xml version="1.0" encoding="UTF-8" standalone="no"?>
<!DOCTYPE svg PUBLIC "-//W3C//DTD SVG 1.1//EN"
 "http://www.w3.org/Graphics/SVG/1.1/DTD/svg11.dtd">
<!-- Generated by graphviz version 2.43.0 (0)
 -->
<!-- Title: sourcetree Pages: 1 -->
<svg width="820pt" height="260pt"
 viewBox="0.00 0.00 819.50 260.00" xmlns="http://www.w3.org/2000/svg" xmlns:xlink="http://www.w3.org/1999/xlink">
<g id="graph0" class="graph" transform="scale(1 1) rotate(0) translate(4 256)">
<title>sourcetree</title>
<polygon fill="white" stroke="transparent" points="-4,4 -4,-256 815.5,-256 815.5,4 -4,4"/>
<!-- MulleObjCStandardFoundation -->
<g id="node1" class="node">
<title>MulleObjCStandardFoundation</title>
<polygon fill="yellow" stroke="black" points="485,-252 246,-252 246,-216 485,-216 485,-252"/>
<text text-anchor="middle" x="365.5" y="-230.3" font-family="Times,serif" font-size="14.00">MulleObjCStandardFoundation</text>
</g>
<!-- MulleObjCContainerFoundation -->
<g id="node7" class="node">
<title>MulleObjCContainerFoundation</title>
<g id="a_node7"><a xlink:href="https://github.com/MulleFoundation/MulleObjCContainerFoundation" xlink:title="MulleObjCContainerFoundation">
<polygon fill="lightgrey" stroke="black" points="243,-180 0,-180 0,-144 243,-144 243,-180"/>
<text text-anchor="middle" x="121.5" y="-158.3" font-family="Times,serif" font-size="14.00">MulleObjCContainerFoundation</text>
</a>
</g>
</g>
<!-- MulleObjCStandardFoundation&#45;&gt;MulleObjCContainerFoundation -->
<g id="edge7" class="edge">
<title>MulleObjCStandardFoundation&#45;&gt;MulleObjCContainerFoundation</title>
<path fill="none" stroke="black" d="M306.12,-215.97C271.44,-206.01 227.49,-193.41 191.17,-182.99"/>
<polygon fill="black" stroke="black" points="191.72,-179.5 181.14,-180.11 189.79,-186.23 191.72,-179.5"/>
</g>
<!-- MulleObjCTimeFoundation -->
<g id="node11" class="node">
<title>MulleObjCTimeFoundation</title>
<g id="a_node11"><a xlink:href="https://github.com/MulleFoundation/MulleObjCTimeFoundation" xlink:title="MulleObjCTimeFoundation">
<polygon fill="lightgrey" stroke="black" points="469.5,-180 261.5,-180 261.5,-144 469.5,-144 469.5,-180"/>
<text text-anchor="middle" x="365.5" y="-158.3" font-family="Times,serif" font-size="14.00">MulleObjCTimeFoundation</text>
</a>
</g>
</g>
<!-- MulleObjCStandardFoundation&#45;&gt;MulleObjCTimeFoundation -->
<g id="edge8" class="edge">
<title>MulleObjCStandardFoundation&#45;&gt;MulleObjCTimeFoundation</title>
<path fill="none" stroke="black" d="M365.5,-215.7C365.5,-207.98 365.5,-198.71 365.5,-190.11"/>
<polygon fill="black" stroke="black" points="369,-190.1 365.5,-180.1 362,-190.1 369,-190.1"/>
</g>
<!-- MulleObjCValueFoundation -->
<g id="node12" class="node">
<title>MulleObjCValueFoundation</title>
<g id="a_node12"><a xlink:href="https://github.com/MulleFoundation/MulleObjCValueFoundation" xlink:title="MulleObjCValueFoundation">
<polygon fill="lightgrey" stroke="black" points="745.5,-180 533.5,-180 533.5,-144 745.5,-144 745.5,-180"/>
<text text-anchor="middle" x="639.5" y="-158.3" font-family="Times,serif" font-size="14.00">MulleObjCValueFoundation</text>
</a>
</g>
</g>
<!-- MulleObjCStandardFoundation&#45;&gt;MulleObjCValueFoundation -->
<g id="edge9" class="edge">
<title>MulleObjCStandardFoundation&#45;&gt;MulleObjCValueFoundation</title>
<path fill="none" stroke="black" d="M432.18,-215.97C471.63,-205.89 521.75,-193.08 562.83,-182.59"/>
<polygon fill="black" stroke="black" points="563.7,-185.98 572.52,-180.11 561.97,-179.2 563.7,-185.98"/>
</g>
<!-- mulle&#45;allocator -->
<g id="node2" class="node">
<title>mulle&#45;allocator</title>
<g id="a_node2"><a xlink:href="https://github.com/mulle-c/mulle-allocator" xlink:title="mulle&#45;allocator">
<polygon fill="lightgrey" stroke="black" points="701,-36 578,-36 578,0 701,0 701,-36"/>
<text text-anchor="middle" x="639.5" y="-14.3" font-family="Times,serif" font-size="14.00">mulle&#45;allocator</text>
</a>
</g>
</g>
<!-- mulle&#45;buffer -->
<g id="node3" class="node">
<title>mulle&#45;buffer</title>
<g id="a_node3"><a xlink:href="https://github.com/mulle-c/mulle-buffer" xlink:title="mulle&#45;buffer">
<polygon fill="lightgrey" stroke="black" points="691.5,-108 587.5,-108 587.5,-72 691.5,-72 691.5,-108"/>
<text text-anchor="middle" x="639.5" y="-86.3" font-family="Times,serif" font-size="14.00">mulle&#45;buffer</text>
</a>
</g>
</g>
<!-- mulle&#45;buffer&#45;&gt;mulle&#45;allocator -->
<g id="edge1" class="edge">
<title>mulle&#45;buffer&#45;&gt;mulle&#45;allocator</title>
<path fill="none" stroke="black" d="M639.5,-71.7C639.5,-63.98 639.5,-54.71 639.5,-46.11"/>
<polygon fill="black" stroke="black" points="643,-46.1 639.5,-36.1 636,-46.1 643,-46.1"/>
</g>
<!-- mulle&#45;data -->
<g id="node4" class="node">
<title>mulle&#45;data</title>
<g id="a_node4"><a xlink:href="https://github.com/mulle-c/mulle-data" xlink:title="mulle&#45;data">
<polygon fill="lightgrey" stroke="black" points="811.5,-36 719.5,-36 719.5,0 811.5,0 811.5,-36"/>
<text text-anchor="middle" x="765.5" y="-14.3" font-family="Times,serif" font-size="14.00">mulle&#45;data</text>
</a>
</g>
</g>
<!-- mulle&#45;buffer&#45;&gt;mulle&#45;data -->
<g id="edge2" class="edge">
<title>mulle&#45;buffer&#45;&gt;mulle&#45;data</title>
<path fill="none" stroke="black" d="M670.32,-71.88C686.95,-62.64 707.66,-51.13 725.52,-41.21"/>
<polygon fill="black" stroke="black" points="727.52,-44.11 734.56,-36.19 724.12,-37.99 727.52,-44.11"/>
</g>
<!-- mulle&#45;container -->
<g id="node5" class="node">
<title>mulle&#45;container</title>
<g id="a_node5"><a xlink:href="https://github.com/mulle-c/mulle-container" xlink:title="mulle&#45;container">
<polygon fill="lightgrey" stroke="black" points="185.5,-108 57.5,-108 57.5,-72 185.5,-72 185.5,-108"/>
<text text-anchor="middle" x="121.5" y="-86.3" font-family="Times,serif" font-size="14.00">mulle&#45;container</text>
</a>
</g>
</g>
<!-- mulle&#45;objc&#45;cc -->
<g id="node6" class="node">
<title>mulle&#45;objc&#45;cc</title>
<g id="a_node6"><a xlink:href="https://github.com/mulle-cc/mulle-objc-cc" xlink:title="mulle&#45;objc&#45;cc">
<polygon fill="lightgrey" stroke="black" points="231.5,-36 121.5,-36 121.5,0 231.5,0 231.5,-36"/>
<text text-anchor="middle" x="176.5" y="-14.3" font-family="Times,serif" font-size="14.00">mulle&#45;objc&#45;cc</text>
</a>
</g>
</g>
<!-- MulleObjCContainerFoundation&#45;&gt;mulle&#45;container -->
<g id="edge3" class="edge">
<title>MulleObjCContainerFoundation&#45;&gt;mulle&#45;container</title>
<path fill="none" stroke="black" d="M121.5,-143.7C121.5,-135.98 121.5,-126.71 121.5,-118.11"/>
<polygon fill="black" stroke="black" points="125,-118.1 121.5,-108.1 118,-118.1 125,-118.1"/>
</g>
<!-- mulle&#45;objc&#45;debug -->
<g id="node8" class="node">
<title>mulle&#45;objc&#45;debug</title>
<g id="a_node8"><a xlink:href="https://github.com/mulle-objc/mulle-objc-debug" xlink:title="mulle&#45;objc&#45;debug">
<polygon fill="lightgrey" stroke="black" points="389,-36 250,-36 250,0 389,0 389,-36"/>
<text text-anchor="middle" x="319.5" y="-14.3" font-family="Times,serif" font-size="14.00">mulle&#45;objc&#45;debug</text>
</a>
</g>
</g>
<!-- MulleObjC -->
<g id="node9" class="node">
<title>MulleObjC</title>
<g id="a_node9"><a xlink:href="https://github.com/mulle-objc/MulleObjC" xlink:title="MulleObjC">
<polygon fill="lightgrey" stroke="black" points="388.5,-108 296.5,-108 296.5,-72 388.5,-72 388.5,-108"/>
<text text-anchor="middle" x="342.5" y="-86.3" font-family="Times,serif" font-size="14.00">MulleObjC</text>
</a>
</g>
</g>
<!-- MulleObjC&#45;&gt;mulle&#45;objc&#45;cc -->
<g id="edge4" class="edge">
<title>MulleObjC&#45;&gt;mulle&#45;objc&#45;cc</title>
<path fill="none" stroke="black" d="M301.89,-71.88C279.1,-62.26 250.47,-50.19 226.33,-40.01"/>
<polygon fill="black" stroke="black" points="227.55,-36.73 216.98,-36.07 224.83,-43.18 227.55,-36.73"/>
</g>
<!-- MulleObjC&#45;&gt;mulle&#45;objc&#45;debug -->
<g id="edge5" class="edge">
<title>MulleObjC&#45;&gt;mulle&#45;objc&#45;debug</title>
<path fill="none" stroke="black" d="M336.81,-71.7C334.25,-63.9 331.17,-54.51 328.32,-45.83"/>
<polygon fill="black" stroke="black" points="331.57,-44.51 325.12,-36.1 324.92,-46.7 331.57,-44.51"/>
</g>
<!-- mulle&#45;objc&#45;runtime -->
<g id="node10" class="node">
<title>mulle&#45;objc&#45;runtime</title>
<g id="a_node10"><a xlink:href="https://github.com/mulle-objc/mulle-objc-runtime" xlink:title="mulle&#45;objc&#45;runtime">
<polygon fill="lightgrey" stroke="black" points="559.5,-36 407.5,-36 407.5,0 559.5,0 559.5,-36"/>
<text text-anchor="middle" x="483.5" y="-14.3" font-family="Times,serif" font-size="14.00">mulle&#45;objc&#45;runtime</text>
</a>
</g>
</g>
<!-- MulleObjC&#45;&gt;mulle&#45;objc&#45;runtime -->
<g id="edge6" class="edge">
<title>MulleObjC&#45;&gt;mulle&#45;objc&#45;runtime</title>
<path fill="none" stroke="black" d="M376.99,-71.88C395.94,-62.47 419.63,-50.71 439.86,-40.67"/>
<polygon fill="black" stroke="black" points="441.47,-43.77 448.87,-36.19 438.36,-37.5 441.47,-43.77"/>
</g>
<!-- MulleObjCTimeFoundation&#45;&gt;MulleObjC -->
<g id="edge10" class="edge">
<title>MulleObjCTimeFoundation&#45;&gt;MulleObjC</title>
<path fill="none" stroke="black" d="M359.81,-143.7C357.25,-135.9 354.17,-126.51 351.32,-117.83"/>
<polygon fill="black" stroke="black" points="354.57,-116.51 348.12,-108.1 347.92,-118.7 354.57,-116.51"/>
</g>
<!-- MulleObjCValueFoundation&#45;&gt;mulle&#45;buffer -->
<g id="edge11" class="edge">
<title>MulleObjCValueFoundation&#45;&gt;mulle&#45;buffer</title>
<path fill="none" stroke="black" d="M639.5,-143.7C639.5,-135.98 639.5,-126.71 639.5,-118.11"/>
<polygon fill="black" stroke="black" points="643,-118.1 639.5,-108.1 636,-118.1 643,-118.1"/>
</g>
<!-- mulle&#45;utf -->
<g id="node13" class="node">
<title>mulle&#45;utf</title>
<g id="a_node13"><a xlink:href="https://github.com/mulle-c/mulle-utf" xlink:title="mulle&#45;utf">
<polygon fill="lightgrey" stroke="black" points="791,-108 710,-108 710,-72 791,-72 791,-108"/>
<text text-anchor="middle" x="750.5" y="-86.3" font-family="Times,serif" font-size="14.00">mulle&#45;utf</text>
</a>
</g>
</g>
<!-- MulleObjCValueFoundation&#45;&gt;mulle&#45;utf -->
<g id="edge12" class="edge">
<title>MulleObjCValueFoundation&#45;&gt;mulle&#45;utf</title>
<path fill="none" stroke="black" d="M666.65,-143.88C681.03,-134.81 698.88,-123.55 714.41,-113.76"/>
<polygon fill="black" stroke="black" points="716.65,-116.48 723.24,-108.19 712.92,-110.56 716.65,-116.48"/>
</g>
</g>
</svg>
